<svg width="1440" height="2844" viewBox="0 0 1440 2844" fill="none" xmlns="http://www.w3.org/2000/svg">
<g clip-path="url(#clip0_37:72)">
<line x1="498.323" y1="116" x2="498.323" y2="156.474" stroke="#C8B395"/>
<line x1="498.323" y1="365.589" x2="498.323" y2="406.063" stroke="#C8B395"/>
<line x1="498.323" y1="325.115" x2="498.323" y2="348.725" stroke="#C8B395"/>
<line x1="498.323" y1="176.711" x2="498.323" y2="200.321" stroke="#C8B395"/>
<line y1="-0.5" x2="23.5946" y2="-0.5" transform="matrix(-0.328823 0.944392 -0.943172 -0.332305 529.053 180.084)" stroke="#C8B395"/>
<line y1="-0.5" x2="23.5946" y2="-0.5" transform="matrix(-0.328823 0.944392 -0.943172 -0.332305 475.406 318.37)" stroke="#C8B395"/>
<line y1="-0.5" x2="16.9223" y2="-0.5" transform="matrix(-0.396273 0.918133 -0.916412 -0.400236 460.941 358.844)" stroke="#C8B395"/>
<line y1="-0.5" x2="23.5846" y2="-0.5" transform="matrix(-0.424355 -0.905496 0.90355 -0.428482 534.655 339.726)" stroke="#C8B395"/>
<line y1="-0.5" x2="23.5846" y2="-0.5" transform="matrix(-0.424355 -0.905496 0.90355 -0.428482 474.302 201.439)" stroke="#C8B395"/>
<line y1="-0.5" x2="40.3539" y2="-0.5" transform="matrix(0.707611 0.706602 -0.702405 0.711778 571.588 338.607)" stroke="#C8B395"/>
<line y1="-0.5" x2="21.3307" y2="-0.5" transform="matrix(0.70992 0.704282 -0.700071 0.714073 541.412 308.251)" stroke="#C8B395"/>
<line y1="-0.5" x2="21.3307" y2="-0.5" transform="matrix(0.70992 0.704282 -0.700071 0.714073 434.118 203.694)" stroke="#C8B395"/>
<line y1="-0.5" x2="40.3539" y2="-0.5" transform="matrix(0.707611 0.706602 -0.702405 0.711778 390.529 159.847)" stroke="#C8B395"/>
<line x1="397.235" y1="261.532" x2="357" y2="261.532" stroke="#C8B395"/>
<line x1="642" y1="261.532" x2="601.765" y2="261.532" stroke="#C8B395"/>
<line x1="588.353" y1="261.532" x2="561.529" y2="261.532" stroke="#C8B395"/>
<line y1="-0.5" x2="26.8444" y2="-0.5" transform="matrix(-0.931573 -0.363554 0.359835 -0.933016 579.831 291.028)" stroke="#C8B395"/>
<line y1="-0.5" x2="26.8444" y2="-0.5" transform="matrix(-0.931573 -0.363554 0.359835 -0.933016 442.36 237.063)" stroke="#C8B395"/>
<line y1="-0.5" x2="26.8541" y2="-0.5" transform="matrix(-0.898199 0.439588 -0.435404 -0.900235 442.059 286.606)" stroke="#C8B395"/>
<line y1="-0.5" x2="26.8541" y2="-0.5" transform="matrix(-0.898199 0.439588 -0.435404 -0.900235 578.944 223.931)" stroke="#C8B395"/>
<line y1="-0.5" x2="11.2594" y2="-0.5" transform="matrix(-0.893371 0.449321 -0.445089 -0.895486 605.118 213.812)" stroke="#C8B395"/>
<line y1="-0.5" x2="15.8542" y2="-0.5" transform="matrix(-0.422971 0.906143 -0.904209 -0.42709 541.412 149.728)" stroke="#C8B395"/>
<line y1="-0.5" x2="15.0126" y2="-0.5" transform="matrix(-0.893366 -0.44933 0.445098 -0.895482 611.823 304.878)" stroke="#C8B395"/>
<line y1="-0.5" x2="14.4086" y2="-0.5" transform="matrix(-0.953784 -0.300493 0.297273 -0.954793 400.919 221.515)" stroke="#C8B395"/>
<line y1="-0.5" x2="11.3058" y2="-0.5" transform="matrix(-0.320957 -0.947094 0.945928 -0.324376 457.864 163.809)" stroke="#C8B395"/>
<line y1="-0.5" x2="15.066" y2="-0.5" transform="matrix(-0.445099 -0.895481 0.893365 -0.449331 548.118 368.962)" stroke="#C8B395"/>
<line y1="-0.5" x2="15.0126" y2="-0.5" transform="matrix(-0.893365 0.449332 -0.4451 -0.895481 400.588 304.878)" stroke="#C8B395"/>
<line x1="437.471" y1="261.532" x2="410.647" y2="261.532" stroke="#C8B395"/>
<line y1="-0.5" x2="40.3522" y2="-0.5" transform="matrix(-0.712788 0.701379 -0.697152 -0.716923 599.381 159.187)" stroke="#C8B395"/>
<line y1="-0.5" x2="24.7326" y2="-0.5" transform="matrix(-0.677838 0.735211 -0.731201 -0.682162 558.177 200.321)" stroke="#C8B395"/>
<line y1="-0.5" x2="24.7326" y2="-0.5" transform="matrix(-0.677838 0.735211 -0.731201 -0.682162 454.235 304.878)" stroke="#C8B395"/>
<line y1="-0.5" x2="40.3522" y2="-0.5" transform="matrix(-0.712788 0.701379 -0.697152 -0.716923 422.645 335.234)" stroke="#C8B395"/>
<circle cx="338.5" cy="395.5" r="230.5" fill="#F0ECE6" fill-opacity="0.63"/>
<line x1="1411.32" y1="1625" x2="1411.32" y2="1665.47" stroke="#C8B395"/>
<line x1="1411.32" y1="1874.59" x2="1411.32" y2="1915.06" stroke="#C8B395"/>
<line x1="1411.32" y1="1834.12" x2="1411.32" y2="1857.73" stroke="#C8B395"/>
<line x1="1411.32" y1="1685.71" x2="1411.32" y2="1709.32" stroke="#C8B395"/>
<line y1="-0.5" x2="23.5946" y2="-0.5" transform="matrix(-0.328823 0.944392 -0.943172 -0.332305 1442.05 1689.08)" stroke="#C8B395"/>
<line y1="-0.5" x2="23.5946" y2="-0.5" transform="matrix(-0.328823 0.944392 -0.943172 -0.332305 1388.41 1827.37)" stroke="#C8B395"/>
<line y1="-0.5" x2="16.9223" y2="-0.5" transform="matrix(-0.396273 0.918133 -0.916412 -0.400236 1373.94 1867.84)" stroke="#C8B395"/>
<line y1="-0.5" x2="23.5846" y2="-0.5" transform="matrix(-0.424355 -0.905496 0.90355 -0.428482 1447.66 1848.73)" stroke="#C8B395"/>
<line y1="-0.5" x2="23.5846" y2="-0.5" transform="matrix(-0.424355 -0.905496 0.90355 -0.428482 1387.3 1710.44)" stroke="#C8B395"/>
<line y1="-0.5" x2="21.3307" y2="-0.5" transform="matrix(0.70992 0.704282 -0.700071 0.714073 1347.12 1712.69)" stroke="#C8B395"/>
<line y1="-0.5" x2="40.3539" y2="-0.5" transform="matrix(0.707611 0.706602 -0.702405 0.711778 1303.53 1668.85)" stroke="#C8B395"/>
<line x1="1310.24" y1="1770.53" x2="1270" y2="1770.53" stroke="#C8B395"/>
<line y1="-0.5" x2="26.8444" y2="-0.5" transform="matrix(-0.931573 -0.363554 0.359835 -0.933016 1355.36 1746.06)" stroke="#C8B395"/>
<line y1="-0.5" x2="26.8541" y2="-0.5" transform="matrix(-0.898199 0.439588 -0.435404 -0.900235 1355.06 1795.61)" stroke="#C8B395"/>
<line y1="-0.5" x2="14.4086" y2="-0.5" transform="matrix(-0.953784 -0.300493 0.297273 -0.954793 1313.92 1730.51)" stroke="#C8B395"/>
<line y1="-0.5" x2="11.3058" y2="-0.5" transform="matrix(-0.320957 -0.947094 0.945928 -0.324376 1370.86 1672.81)" stroke="#C8B395"/>
<line y1="-0.5" x2="15.0126" y2="-0.5" transform="matrix(-0.893365 0.449332 -0.4451 -0.895481 1313.59 1813.88)" stroke="#C8B395"/>
<line x1="1350.47" y1="1770.53" x2="1323.65" y2="1770.53" stroke="#C8B395"/>
<line y1="-0.5" x2="24.7326" y2="-0.5" transform="matrix(-0.677838 0.735211 -0.731201 -0.682162 1367.24 1813.88)" stroke="#C8B395"/>
<line y1="-0.5" x2="40.3522" y2="-0.5" transform="matrix(-0.712788 0.701379 -0.697152 -0.716923 1335.64 1844.23)" stroke="#C8B395"/>
<circle cx="1251.5" cy="1904.5" r="230.5" fill="#F0ECE6" fill-opacity="0.63"/>
<line x1="1181.32" y1="500" x2="1181.32" y2="540.474" stroke="#C8B395"/>
<line x1="1181.32" y1="749.589" x2="1181.32" y2="790.063" stroke="#C8B395"/>
<line x1="1181.32" y1="709.115" x2="1181.32" y2="732.725" stroke="#C8B395"/>
<line x1="1181.32" y1="560.711" x2="1181.32" y2="584.321" stroke="#C8B395"/>
<line y1="-0.5" x2="23.5946" y2="-0.5" transform="matrix(-0.328823 0.944392 -0.943172 -0.332305 1212.05 564.084)" stroke="#C8B395"/>
<line y1="-0.5" x2="23.5946" y2="-0.5" transform="matrix(-0.328823 0.944392 -0.943172 -0.332305 1158.41 702.37)" stroke="#C8B395"/>
<line y1="-0.5" x2="16.9223" y2="-0.5" transform="matrix(-0.396273 0.918133 -0.916412 -0.400236 1143.94 742.844)" stroke="#C8B395"/>
<line y1="-0.5" x2="23.5846" y2="-0.5" transform="matrix(-0.424355 -0.905496 0.90355 -0.428482 1217.66 723.726)" stroke="#C8B395"/>
<line y1="-0.5" x2="23.5846" y2="-0.5" transform="matrix(-0.424355 -0.905496 0.90355 -0.428482 1157.3 585.439)" stroke="#C8B395"/>
<line y1="-0.5" x2="40.3539" y2="-0.5" transform="matrix(0.707611 0.706602 -0.702405 0.711778 1254.59 722.607)" stroke="#C8B395"/>
<line y1="-0.5" x2="21.3307" y2="-0.5" transform="matrix(0.70992 0.704282 -0.700071 0.714073 1224.41 692.251)" stroke="#C8B395"/>
<line y1="-0.5" x2="21.3307" y2="-0.5" transform="matrix(0.70992 0.704282 -0.700071 0.714073 1117.12 587.694)" stroke="#C8B395"/>
<line y1="-0.5" x2="40.3539" y2="-0.5" transform="matrix(0.707611 0.706602 -0.702405 0.711778 1073.53 543.847)" stroke="#C8B395"/>
<line x1="1080.24" y1="645.532" x2="1040" y2="645.532" stroke="#C8B395"/>
<line x1="1325" y1="645.532" x2="1284.76" y2="645.532" stroke="#C8B395"/>
<line x1="1271.35" y1="645.532" x2="1244.53" y2="645.532" stroke="#C8B395"/>
<line y1="-0.5" x2="26.8444" y2="-0.5" transform="matrix(-0.931573 -0.363554 0.359835 -0.933016 1262.83 675.028)" stroke="#C8B395"/>
<line y1="-0.5" x2="26.8444" y2="-0.5" transform="matrix(-0.931573 -0.363554 0.359835 -0.933016 1125.36 621.063)" stroke="#C8B395"/>
<line y1="-0.5" x2="26.8541" y2="-0.5" transform="matrix(-0.898199 0.439588 -0.435404 -0.900235 1125.06 670.606)" stroke="#C8B395"/>
<line y1="-0.5" x2="26.8541" y2="-0.5" transform="matrix(-0.898199 0.439588 -0.435404 -0.900235 1261.94 607.931)" stroke="#C8B395"/>
<line y1="-0.5" x2="11.2594" y2="-0.5" transform="matrix(-0.893371 0.449321 -0.445089 -0.895486 1288.12 597.812)" stroke="#C8B395"/>
<line y1="-0.5" x2="15.8542" y2="-0.5" transform="matrix(-0.422971 0.906143 -0.904209 -0.42709 1224.41 533.728)" stroke="#C8B395"/>
<line y1="-0.5" x2="15.0126" y2="-0.5" transform="matrix(-0.893366 -0.44933 0.445098 -0.895482 1294.82 688.878)" stroke="#C8B395"/>
<line y1="-0.5" x2="14.4086" y2="-0.5" transform="matrix(-0.953784 -0.300493 0.297273 -0.954793 1083.92 605.515)" stroke="#C8B395"/>
<line y1="-0.5" x2="11.3058" y2="-0.5" transform="matrix(-0.320957 -0.947094 0.945928 -0.324376 1140.86 547.809)" stroke="#C8B395"/>
<line y1="-0.5" x2="15.066" y2="-0.5" transform="matrix(-0.445099 -0.895481 0.893365 -0.449331 1231.12 752.962)" stroke="#C8B395"/>
<line y1="-0.5" x2="15.0126" y2="-0.5" transform="matrix(-0.893365 0.449332 -0.4451 -0.895481 1083.59 688.878)" stroke="#C8B395"/>
<line x1="1120.47" y1="645.532" x2="1093.65" y2="645.532" stroke="#C8B395"/>
<line y1="-0.5" x2="40.3522" y2="-0.5" transform="matrix(-0.712788 0.701379 -0.697152 -0.716923 1282.38 543.187)" stroke="#C8B395"/>
<line y1="-0.5" x2="24.7326" y2="-0.5" transform="matrix(-0.677838 0.735211 -0.731201 -0.682162 1241.18 584.321)" stroke="#C8B395"/>
<line y1="-0.5" x2="24.7326" y2="-0.5" transform="matrix(-0.677838 0.735211 -0.731201 -0.682162 1137.24 688.878)" stroke="#C8B395"/>
<line y1="-0.5" x2="40.3522" y2="-0.5" transform="matrix(-0.712788 0.701379 -0.697152 -0.716923 1105.64 719.234)" stroke="#C8B395"/>
<circle cx="1167.5" cy="789.5" r="229.5" stroke="#EFEAE2" stroke-width="2"/>
<line x1="126.323" y1="1367" x2="126.323" y2="1407.47" stroke="#C8B395"/>
<line x1="126.323" y1="1616.59" x2="126.323" y2="1657.06" stroke="#C8B395"/>
<line x1="126.323" y1="1576.12" x2="126.323" y2="1599.73" stroke="#C8B395"/>
<line x1="126.323" y1="1427.71" x2="126.323" y2="1451.32" stroke="#C8B395"/>
<line y1="-0.5" x2="23.5946" y2="-0.5" transform="matrix(-0.328823 0.944392 -0.943172 -0.332305 157.053 1431.08)" stroke="#C8B395"/>
<line y1="-0.5" x2="23.5946" y2="-0.5" transform="matrix(-0.328823 0.944392 -0.943172 -0.332305 103.406 1569.37)" stroke="#C8B395"/>
<line y1="-0.5" x2="16.9223" y2="-0.5" transform="matrix(-0.396273 0.918133 -0.916412 -0.400236 88.9412 1609.84)" stroke="#C8B395"/>
<line y1="-0.5" x2="23.5846" y2="-0.5" transform="matrix(-0.424355 -0.905496 0.90355 -0.428482 162.655 1590.73)" stroke="#C8B395"/>
<line y1="-0.5" x2="23.5846" y2="-0.5" transform="matrix(-0.424355 -0.905496 0.90355 -0.428482 102.302 1452.44)" stroke="#C8B395"/>
<line y1="-0.5" x2="40.3539" y2="-0.5" transform="matrix(0.707611 0.706602 -0.702405 0.711778 199.588 1589.61)" stroke="#C8B395"/>
<line y1="-0.5" x2="21.3307" y2="-0.5" transform="matrix(0.70992 0.704282 -0.700071 0.714073 169.412 1559.25)" stroke="#C8B395"/>
<line y1="-0.5" x2="21.3307" y2="-0.5" transform="matrix(0.70992 0.704282 -0.700071 0.714073 62.1177 1454.69)" stroke="#C8B395"/>
<line y1="-0.5" x2="40.3539" y2="-0.5" transform="matrix(0.707611 0.706602 -0.702405 0.711778 18.5293 1410.85)" stroke="#C8B395"/>
<line x1="25.2354" y1="1512.53" x2="-14.9999" y2="1512.53" stroke="#C8B395"/>
<line x1="270" y1="1512.53" x2="229.765" y2="1512.53" stroke="#C8B395"/>
<line x1="216.353" y1="1512.53" x2="189.529" y2="1512.53" stroke="#C8B395"/>
<line y1="-0.5" x2="26.8444" y2="-0.5" transform="matrix(-0.931573 -0.363554 0.359835 -0.933016 207.831 1542.03)" stroke="#C8B395"/>
<line y1="-0.5" x2="26.8444" y2="-0.5" transform="matrix(-0.931573 -0.363554 0.359835 -0.933016 70.3604 1488.06)" stroke="#C8B395"/>
<line y1="-0.5" x2="26.8541" y2="-0.5" transform="matrix(-0.898199 0.439588 -0.435404 -0.900235 70.0588 1537.61)" stroke="#C8B395"/>
<line y1="-0.5" x2="26.8541" y2="-0.5" transform="matrix(-0.898199 0.439588 -0.435404 -0.900235 206.944 1474.93)" stroke="#C8B395"/>
<line y1="-0.5" x2="11.2594" y2="-0.5" transform="matrix(-0.893371 0.449321 -0.445089 -0.895486 233.118 1464.81)" stroke="#C8B395"/>
<line y1="-0.5" x2="15.8542" y2="-0.5" transform="matrix(-0.422971 0.906143 -0.904209 -0.42709 169.412 1400.73)" stroke="#C8B395"/>
<line y1="-0.5" x2="15.0126" y2="-0.5" transform="matrix(-0.893366 -0.44933 0.445098 -0.895482 239.823 1555.88)" stroke="#C8B395"/>
<line y1="-0.5" x2="14.4086" y2="-0.5" transform="matrix(-0.953784 -0.300493 0.297273 -0.954793 28.9192 1472.51)" stroke="#C8B395"/>
<line y1="-0.5" x2="11.3058" y2="-0.5" transform="matrix(-0.320957 -0.947094 0.945928 -0.324376 85.864 1414.81)" stroke="#C8B395"/>
<line y1="-0.5" x2="15.066" y2="-0.5" transform="matrix(-0.445099 -0.895481 0.893365 -0.449331 176.118 1619.96)" stroke="#C8B395"/>
<line y1="-0.5" x2="15.0126" y2="-0.5" transform="matrix(-0.893365 0.449332 -0.4451 -0.895481 28.5881 1555.88)" stroke="#C8B395"/>
<line x1="65.4707" y1="1512.53" x2="38.6472" y2="1512.53" stroke="#C8B395"/>
<line y1="-0.5" x2="40.3522" y2="-0.5" transform="matrix(-0.712788 0.701379 -0.697152 -0.716923 227.381 1410.19)" stroke="#C8B395"/>
<line y1="-0.5" x2="24.7326" y2="-0.5" transform="matrix(-0.677838 0.735211 -0.731201 -0.682162 186.177 1451.32)" stroke="#C8B395"/>
<line y1="-0.5" x2="24.7326" y2="-0.5" transform="matrix(-0.677838 0.735211 -0.731201 -0.682162 82.2354 1555.88)" stroke="#C8B395"/>
<line y1="-0.5" x2="40.3522" y2="-0.5" transform="matrix(-0.712788 0.701379 -0.697152 -0.716923 50.645 1586.23)" stroke="#C8B395"/>
<circle cx="112.5" cy="1656.5" r="229.5" stroke="#EFEAE2" stroke-width="2"/>
<path d="M338.245 688.05C338.176 684.161 338.269 680.463 338.5 677C338.5 680.76 338.414 684.443 338.245 688.05C339.224 743.988 373.495 839.529 509 847.5C452.167 847.5 338.5 881.6 338.5 1018C334.948 961.167 295.875 847.5 168 847.5C223.267 847.5 332.276 815.254 338.245 688.05Z" fill="#E5E5E5"/>
<path d="M448.952 810.926C448.939 811.656 448.957 812.35 449 813C449 812.294 448.984 811.603 448.952 810.926C449.136 800.427 455.568 782.496 481 781C470.333 781 449 774.6 449 749C448.333 759.667 441 781 417 781C427.373 781 447.832 787.052 448.952 810.926Z" fill="#E5E5E5"/>
<path d="M548.952 842.926C548.939 843.656 548.957 844.35 549 845C549 844.294 548.984 843.603 548.952 842.926C549.136 832.427 555.568 814.496 581 813C570.333 813 549 806.6 549 781C548.333 791.667 541 813 517 813C527.373 813 547.832 819.052 548.952 842.926Z" fill="#E5E5E5"/>
<path d="M886.245 2100.05C886.176 2096.16 886.269 2092.46 886.5 2089C886.5 2092.76 886.414 2096.44 886.245 2100.05C887.224 2155.99 921.495 2251.53 1057 2259.5C1000.17 2259.5 886.5 2293.6 886.5 2430C882.948 2373.17 843.875 2259.5 716 2259.5C771.267 2259.5 880.276 2227.25 886.245 2100.05Z" fill="#E5E5E5"/>
<path d="M996.952 2222.93C996.939 2223.66 996.957 2224.35 997 2225C997 2224.29 996.984 2223.6 996.952 2222.93C997.136 2212.43 1003.57 2194.5 1029 2193C1018.33 2193 997 2186.6 997 2161C996.333 2171.67 989 2193 965 2193C975.373 2193 995.832 2199.05 996.952 2222.93Z" fill="#E5E5E5"/>
<path d="M1096.95 2254.93C1096.94 2255.66 1096.96 2256.35 1097 2257C1097 2256.29 1096.98 2255.6 1096.95 2254.93C1097.14 2244.43 1103.57 2226.5 1129 2225C1118.33 2225 1097 2218.6 1097 2193C1096.33 2203.67 1089 2225 1065 2225C1075.37 2225 1095.83 2231.05 1096.95 2254.93Z" fill="#E5E5E5"/>
<path d="M1207.95 235.926C1207.94 236.656 1207.96 237.35 1208 238C1208 237.294 1207.98 236.603 1207.95 235.926C1208.14 225.427 1214.57 207.496 1240 206C1229.33 206 1208 199.6 1208 174C1207.33 184.667 1200 206 1176 206C1186.37 206 1206.83 212.052 1207.95 235.926Z" fill="#E5E5E5"/>
<path d="M1175.95 338.926C1175.94 339.656 1175.96 340.35 1176 341C1176 340.294 1175.98 339.603 1175.95 338.926C1176.14 328.427 1182.57 310.496 1208 309C1197.33 309 1176 302.6 1176 277C1175.33 287.667 1168 309 1144 309C1154.37 309 1174.83 315.052 1175.95 338.926Z" fill="#E5E5E5"/>
<path d="M773.952 1357.93C773.939 1358.66 773.957 1359.35 774 1360C774 1359.29 773.984 1358.6 773.952 1357.93C774.136 1347.43 780.568 1329.5 806 1328C795.333 1328 774 1321.6 774 1296C773.333 1306.67 766 1328 742 1328C752.373 1328 772.832 1334.05 773.952 1357.93Z" fill="#E5E5E5"/>
<path d="M741.952 1460.93C741.939 1461.66 741.957 1462.35 742 1463C742 1462.29 741.984 1461.6 741.952 1460.93C742.136 1450.43 748.568 1432.5 774 1431C763.333 1431 742 1424.6 742 1399C741.333 1409.67 734 1431 710 1431C720.373 1431 740.832 1437.05 741.952 1460.93Z" fill="#E5E5E5"/>
<path d="M406.952 2118.93C406.939 2119.66 406.957 2120.35 407 2121C407 2120.29 406.984 2119.6 406.952 2118.93C407.136 2108.43 413.568 2090.5 439 2089C428.333 2089 407 2082.6 407 2057C406.333 2067.67 399 2089 375 2089C385.373 2089 405.832 2095.05 406.952 2118.93Z" fill="#E5E5E5"/>
<path d="M374.952 2221.93C374.939 2222.66 374.957 2223.35 375 2224C375 2223.29 374.984 2222.6 374.952 2221.93C375.136 2211.43 381.568 2193.5 407 2192C396.333 2192 375 2185.6 375 2160C374.333 2170.67 367 2192 343 2192C353.373 2192 373.832 2198.05 374.952 2221.93Z" fill="#E5E5E5"/>
</g>
<defs>
<clipPath id="clip0_37:72">
<rect width="1440" height="2844" fill="white"/>
</clipPath>
</defs>
</svg>
