<svg id="Layer_1" data-name="Layer 1" xmlns="http://www.w3.org/2000/svg" xmlns:xlink="http://www.w3.org/1999/xlink" viewBox="0 0 725.44 114.4"><defs><style>.cls-1{fill:url(#linear-gradient);}.cls-2{fill:url(#linear-gradient-2);}.cls-3{fill:url(#linear-gradient-3);}.cls-4{fill:url(#linear-gradient-4);}.cls-5{font-size:68.93px;fill:#fff;font-family:CalistoMT, Calisto MT;}.cls-6{letter-spacing:-0.04em;}.cls-7{letter-spacing:0em;}.cls-8{letter-spacing:-0.08em;}.cls-9{font-size:38px;fill:#e6332a;stroke:#e6332a;stroke-miterlimit:10;stroke-width:0.5px;font-family:BookmanOldStyle, Bookman Old Style;}</style><linearGradient id="linear-gradient" x1="49.12" y1="56.43" x2="139.13" y2="56.43" gradientUnits="userSpaceOnUse"><stop offset="0.01" stop-color="#6d1719"/><stop offset="0.18" stop-color="#e30613"/><stop offset="0.31" stop-color="#d09422"/><stop offset="0.43" stop-color="#ef7b5a"/><stop offset="0.56" stop-color="#cb181a"/><stop offset="0.67" stop-color="#d4d125"/><stop offset="0.81" stop-color="#e1573c"/><stop offset="0.91" stop-color="#6d1719"/></linearGradient><linearGradient id="linear-gradient-2" x1="74.38" y1="56.43" x2="139.42" y2="56.43" gradientUnits="userSpaceOnUse"><stop offset="0" stop-color="#f3c74a"/><stop offset="0.31" stop-color="#ed6d05"/><stop offset="0.66" stop-color="#d22b18"/><stop offset="1" stop-color="#922918"/></linearGradient><linearGradient id="linear-gradient-3" x1="22.78" y1="40.84" x2="84.23" y2="40.84" xlink:href="#linear-gradient-2"/><linearGradient id="linear-gradient-4" x1="84.49" y1="65.77" x2="112.12" y2="110.35" gradientUnits="userSpaceOnUse"><stop offset="0" stop-color="#922918"/><stop offset="0.34" stop-color="#d22b18"/><stop offset="0.69" stop-color="#ed6d05"/><stop offset="1" stop-color="#f3c74a"/></linearGradient></defs><path class="cls-1" d="M124.79,47.94,49.12.78,49.61,0l75.66,47.16ZM127.56,57,51.89,9.85l-.48.78,75.67,47.16Zm1.34,9L53.23,18.84l-.48.78,75.66,47.16Zm2.83,9L56.06,27.82l-.48.77,75.66,47.17Zm1,9.3L57,37.11l-.48.78,75.66,47.16ZM135,94.13,59.3,47l-.49.77L134.48,94.9Zm1.34,9L60.63,56l-.48.78,75.67,47.16Zm2.83,9L63.47,64.93l-.49.78,75.67,47.16Z"/><path class="cls-2" d="M139.42,40.84a17.74,17.74,0,0,1-18,17.48h-9.25c-.8,0-1.6-.08-2.4-.08A35.59,35.59,0,0,0,79.27,75.15a33.51,33.51,0,0,0-4.75,14.36V58.32h-.14V57.7c0-19,15.84-34.34,35.38-34.34h11.65a18.26,18.26,0,0,1,12.74,5.12,17.06,17.06,0,0,1,5.27,12.36Z"/><path class="cls-3" d="M69.58,57.7v.62H58.84A18.2,18.2,0,0,1,46.11,53.2a17.16,17.16,0,0,1-5.28-12.36,17.76,17.76,0,0,1,18-17.48H105C85.42,23.36,69.58,38.74,69.58,57.7Z"/><path class="cls-4" d="M112.16,58.32h-1.62v38.6a17.2,17.2,0,0,1-5.28,12.36,18.34,18.34,0,0,1-28-3.08,33.33,33.33,0,0,1-2.75-10.53V89.51a33.51,33.51,0,0,1,4.75-14.36,35.59,35.59,0,0,1,30.49-16.91C110.56,58.24,111.36,58.27,112.16,58.32Z"/><text class="cls-5" transform="translate(169.59 65.33)">TI<tspan class="cls-6" x="70.38" y="0">N</tspan><tspan class="cls-7" x="123.46" y="0">A POK</tspan><tspan class="cls-8" x="344.33" y="0">U</tspan><tspan class="cls-7" x="394.15" y="0">AAH</tspan></text><text class="cls-9" transform="translate(169.59 110.51)">CONSULTANCY &amp; TRANING</text></svg>